# xmcd CD database file generated by Grip 3.2.0
# 
# Track frame offsets:
#       150
#       25577
#       28790
#       48782
#       82942
#       130970
#       141912
#       170215
#       211900
#       232287
# 
# Disc length: 3361 seconds
# 
# Revision: 8
# Processed by: cddbd v1.5.1PL0 Copyright (c) Steve Scherf et al.
# Submitted via: Grip 3.2.0
# 
DISCID=870d1f0a
DTITLE=Oxford Camerata - Josquin Desprez. Missa "L'homme armé", Ave Maria and 
DTITLE=Absalon fili mi
DYEAR=1998
DGENRE=Classical
TTITLE0=Ave Maria
TTITLE1=L'homme armé ( Mode 6)
TTITLE2=I. Kyrie (Missa L'homme arme)
TTITLE3=II. Gloria (Missa L'homme arme)
TTITLE4=III. Credo (Missa L'homme arme)
TTITLE5=IV. Laeta Dies ( Mode 6)
TTITLE6=V. Sanctus (Missa L'homme arme)
TTITLE7=VI. Agnus Dei (Missa L'homme arme)
TTITLE8=Absalon, fili mi
TTITLE9=Lamentation sur la mort de Josquin (Vinders)
EXTD=
EXTT0=
EXTT1=
EXTT2=
EXTT3=
EXTT4=
EXTT5=
EXTT6=
EXTT7=
EXTT8=
EXTT9=
PLAYORDER=
